# xmcd CD database file
#
# Track frame offsets:
#	150
#	24275
#	45174
#	68816
#	98294
#	121238
#	147924
#	180782
#	208025
#	227368
#
# Disc length: 3344 seconds
#
# Revision: 0
# Processed by: cddbd v1.5.2PL0 Copyright (c) Steve Scherf et al.
# Submitted via: CDex 1.81
#
DISCID=6a0d0e0a
DTITLE=Manhattan Jazz Quintet - Some Skunk Funk
DYEAR=2017
DGENRE=Jazz
TTITLE0=El Cumbanchero
TTITLE1=Night And Day
TTITLE2=Some Skunk Funk
TTITLE3=Willow Weep For Me
TTITLE4=Down By The Riverside
TTITLE5=Fly Me To The Moon
TTITLE6=Besame Mucho
TTITLE7=Body And Soul
TTITLE8=I Got Rhythm
TTITLE9=Tea For Two
EXTD=YEAR: 2017
EXTT0=
EXTT1=
EXTT2=
EXTT3=
EXTT4=
EXTT5=
EXTT6=
EXTT7=
EXTT8=
EXTT9=
PLAYORDER=
